<?xml version="1.0" standalone="no"?>
<!DOCTYPE svg PUBLIC "-//W3C//DTD SVG 20010904//EN"
 "http://www.w3.org/TR/2001/REC-SVG-20010904/DTD/svg10.dtd">
<svg version="1.0" xmlns="http://www.w3.org/2000/svg"
 width="601.000000pt" height="601.000000pt" viewBox="0 0 601.000000 601.000000"
 preserveAspectRatio="xMidYMid meet">
<metadata>
Created by potrace 1.14, written by Peter Selinger 2001-2017
</metadata>
<g transform="translate(0.000000,601.000000) scale(0.100000,-0.100000)"
fill="#000000" stroke="none">
<path d="M2888 5452 c-167 -85 -163 -326 8 -407 116 -55 270 12 308 135 46
148 -52 288 -206 296 -45 2 -67 -2 -110 -24z"/>
<path d="M613 5407 l-61 -9 -25 -61 c-74 -185 -78 -404 -11 -607 28 -85 69
-162 133 -250 l44 -60 25 22 c80 76 100 219 49 356 -38 103 -51 216 -34 307 5
28 10 51 12 53 2 2 56 -9 155 -33 8 -2 62 -20 120 -40 201 -70 287 -92 403
-102 l67 -6 0 132 0 131 -43 0 c-54 0 -198 37 -345 90 -63 22 -123 42 -135 45
-126 29 -162 35 -222 38 -38 2 -98 -1 -132 -6z"/>
<path d="M5205 5413 c-77 -7 -164 -29 -325 -83 -195 -65 -292 -90 -351 -90
l-39 0 0 -130 0 -130 41 0 c70 0 229 37 400 94 250 83 305 95 314 67 7 -25 9
-171 2 -221 -4 -25 -21 -86 -38 -135 -27 -77 -30 -99 -26 -157 6 -72 38 -147
79 -186 l25 -22 46 62 c117 157 178 341 177 533 0 131 -16 217 -57 321 l-24
62 -57 7 c-65 9 -124 12 -167 8z"/>
<path d="M2257 5253 c-17 -56 -13 -136 7 -184 25 -57 57 -94 151 -171 205
-169 352 -368 430 -583 24 -67 23 -67 118 -40 18 5 49 1 88 -10 34 -9 62 -15
63 -13 0 2 10 28 20 58 66 198 237 432 428 585 138 112 171 165 171 276 0 59
-16 129 -31 129 -9 0 -93 -50 -170 -102 -173 -117 -359 -302 -479 -480 l-66
-97 -34 57 c-88 146 -264 340 -414 454 -77 59 -246 168 -260 168 -5 0 -15 -21
-22 -47z"/>
<path d="M4131 4994 c-83 -22 -135 -66 -170 -145 -21 -46 -22 -60 -37 -374 -3
-77 -8 -158 -9 -180 -2 -22 -3 -47 -4 -57 -1 -9 -25 -35 -53 -58 -29 -23 -68
-53 -87 -68 -19 -15 -97 -77 -174 -138 l-140 -110 -34 30 c-18 17 -33 35 -33
41 0 5 54 75 120 155 130 157 152 199 146 286 -3 51 -35 132 -60 153 -10 8
-67 -43 -246 -221 -133 -133 -239 -247 -247 -265 -11 -27 -13 -167 -13 -766 0
-402 0 -740 0 -749 0 -17 -85 -108 -100 -108 -5 0 -29 21 -55 46 l-46 46 -1
757 c0 600 -3 761 -14 782 -7 14 -117 130 -244 258 -183 182 -235 229 -246
220 -27 -23 -58 -103 -59 -158 -3 -89 16 -125 149 -286 l123 -150 -31 -32
c-36 -38 -43 -40 -76 -13 -311 247 -406 323 -412 329 -10 9 -15 72 -23 256
-12 296 -16 328 -37 377 -35 82 -129 148 -209 148 l-24 0 0 -433 c0 -379 2
-437 16 -458 9 -13 173 -182 366 -374 l349 -350 -1 -375 0 -375 -818 -3 -818
-2 3 -128 3 -127 443 -1 c243 0 444 -3 447 -5 2 -3 -6 -16 -18 -30 -34 -38
-151 -171 -176 -200 -18 -22 -81 -46 -315 -125 l-293 -98 33 -100 c18 -56 36
-111 41 -122 8 -21 17 -18 328 86 352 117 328 104 445 240 143 164 205 215
333 275 72 34 150 58 230 71 53 8 273 8 287 -1 25 -16 53 -92 53 -145 0 -76
-19 -108 -149 -247 -61 -65 -127 -135 -146 -156 -27 -30 -53 -45 -119 -67 -46
-16 -264 -90 -484 -165 -220 -75 -414 -141 -432 -146 -18 -5 -35 -13 -37 -18
-8 -13 48 -96 80 -118 45 -32 95 -49 149 -52 39 -1 95 13 259 68 115 39 211
69 213 68 1 -2 28 -75 58 -163 41 -114 64 -166 83 -184 26 -24 453 -262 469
-262 14 1 126 213 117 222 -5 4 -76 45 -159 91 -82 45 -168 92 -190 105 -36
20 -43 31 -75 115 -20 52 -35 100 -34 107 1 6 2 19 3 27 2 28 39 53 120 80 76
25 86 32 159 108 203 215 203 214 236 181 18 -18 17 -5 18 -302 l0 -222 128 0
128 0 0 217 c0 296 0 290 18 307 26 27 45 18 112 -51 216 -225 197 -210 284
-239 44 -14 89 -35 99 -45 23 -23 28 -70 12 -109 -4 -8 -7 -17 -8 -20 -3 -8
-15 -40 -34 -89 -13 -35 -26 -49 -71 -73 -225 -124 -326 -181 -333 -188 -8 -7
74 -172 105 -212 12 -15 20 -12 88 26 106 60 150 84 276 154 61 34 118 70 126
80 9 9 41 90 73 180 32 89 60 162 62 162 2 0 70 -23 151 -51 222 -77 279 -92
333 -87 47 5 118 36 153 66 20 18 71 101 65 106 -2 1 -155 54 -339 116 -184
62 -418 142 -520 177 l-185 63 -53 58 c-29 31 -92 99 -140 151 -115 123 -136
158 -136 230 1 56 29 130 56 147 7 4 66 7 131 6 149 -2 201 -9 291 -38 163
-54 261 -125 421 -308 33 -38 74 -84 90 -102 27 -31 61 -44 356 -143 l326
-108 40 121 40 121 -106 36 c-58 20 -113 39 -121 42 -8 3 -92 31 -187 63
l-172 57 -88 101 c-48 55 -98 112 -110 126 -12 13 -20 26 -18 29 3 2 205 4
450 4 l445 0 0 128 0 129 -817 2 -818 3 0 375 0 375 357 358 c261 262 360 367
366 390 8 33 10 862 2 870 -3 3 -29 -2 -59 -9z"/>
<path d="M1276 4814 c-21 -21 -31 -76 -30 -164 2 -153 96 -286 241 -340 81
-30 121 -33 133 -10 28 53 31 196 6 267 -39 106 -125 196 -221 232 -78 28
-112 33 -129 15z"/>
<path d="M4625 4813 c-212 -49 -342 -281 -273 -488 11 -32 18 -40 38 -40 30
-1 114 25 155 47 54 29 127 111 158 178 27 55 31 76 31 150 1 86 -15 155 -37
163 -7 2 -39 -2 -72 -10z"/>
<path d="M950 4234 c-38 -7 -74 -15 -80 -19 -14 -9 -11 -100 7 -177 51 -224
234 -396 470 -443 82 -16 268 1 284 27 7 11 4 59 -7 138 -10 71 -50 167 -99
235 -133 186 -350 277 -575 239z"/>
<path d="M4786 4224 c-220 -53 -408 -261 -432 -478 -3 -28 -7 -61 -9 -73 -7
-46 4 -60 63 -73 58 -13 172 -15 227 -5 272 54 471 278 478 538 l2 82 -45 12
c-62 16 -213 14 -284 -3z"/>
<path d="M1890 3533 c-80 -20 -115 -44 -113 -74 5 -74 91 -199 177 -259 106
-72 279 -89 401 -38 57 24 60 26 57 57 -6 77 -84 194 -167 251 -100 69 -238
94 -355 63z"/>
<path d="M3871 3534 c-143 -37 -256 -149 -301 -297 -15 -47 -6 -56 93 -88 145
-47 306 -8 422 102 57 54 111 147 117 203 2 23 -3 32 -27 46 -79 45 -207 59
-304 34z"/>
<path d="M1273 3261 c-33 -10 -86 -30 -116 -46 -59 -29 -154 -112 -182 -157
-16 -26 -16 -29 4 -57 60 -84 185 -164 307 -196 199 -53 438 26 565 187 30 37
30 39 15 63 -33 50 -119 124 -185 159 -125 65 -281 83 -408 47z"/>
<path d="M4410 3259 c-75 -21 -125 -47 -193 -98 -46 -34 -117 -115 -117 -132
0 -5 31 -39 68 -76 193 -192 487 -219 708 -67 55 38 144 129 144 147 0 21 -74
99 -133 141 -103 73 -184 99 -307 102 -79 2 -121 -2 -170 -17z"/>
</g>
</svg>
